<svg xmlns="http://www.w3.org/2000/svg" xmlns:xlink="http://www.w3.org/1999/xlink" width="505" height="476" viewBox="0 0 505 476"><defs><clipPath id="a"><rect width="505" height="476" transform="translate(372 319)" fill="#fff" stroke="#707070" stroke-width="1"/></clipPath><clipPath id="b"><rect width="540" height="537" transform="translate(0 0)" fill="#fff"/></clipPath></defs><g transform="translate(-372 -319)" clip-path="url(#a)"><g transform="translate(903 821)"><rect width="540" height="537" transform="translate(-531 -542)" fill="#fff"/><g transform="translate(-531 -545)" clip-path="url(#b)"><path d="M277.47,0a9.8,9.8,0,0,1,9.059,6.025,9.721,9.721,0,0,1,.746,3.735V163.823a9.782,9.782,0,0,1-9.8,9.76H9.805A9.782,9.782,0,0,1,0,163.823V14.448A14.443,14.443,0,0,1,8.955,1.1,14.559,14.559,0,0,1,14.51,0Z" transform="translate(159.76 304.23)" fill="#d6cdc5"/><path d="M277.47,0a9.8,9.8,0,0,1,9.059,6.025,9.721,9.721,0,0,1,.746,3.735V163.823a9.782,9.782,0,0,1-9.8,9.76H9.805A9.782,9.782,0,0,1,0,163.823V14.448A14.443,14.443,0,0,1,8.955,1.1,14.559,14.559,0,0,1,14.51,0Z" transform="translate(159.76 304.23)" fill="#e0e0e0"/><g transform="translate(157.595 310.994)"><path d="M1.28,1.274A.748.748,0,0,0,.22.219.748.748,0,0,0,1.28,1.274Z" transform="translate(0 102.05)" fill="#fff"/><path d="M12.776,2c.955-.075.96-1.568,0-1.493A48.592,48.592,0,0,1,.941.013C0-.151-.409,1.287.546,1.451V1.426A50.079,50.079,0,0,0,12.776,2Z" transform="translate(8.569 116.585)" fill="#fff"/><path d="M6.45,1.493A.746.746,0,0,0,6.98.219.752.752,0,0,0,6.45,0H.75A.746.746,0,0,0,.22,1.274a.752.752,0,0,0,.53.219Z" transform="translate(12.365 124.073)" fill="#fff"/><path d="M6.664,1.467A.766.766,0,0,0,7.189.547a.76.76,0,0,0-.92-.523,10.581,10.581,0,0,1-5.32.5.776.776,0,0,0-.925.5.761.761,0,0,0,.525.921v.025A12.163,12.163,0,0,0,6.664,1.467Z" transform="translate(29.466 120.386)" fill="#fff"/><path d="M2.847,1.465a.79.79,0,0,0,.45-.338A.753.753,0,0,0,3.372.549.772.772,0,0,0,3.027.1.748.748,0,0,0,2.452.027L.552.659A.775.775,0,0,0,.1,1a.745.745,0,0,0,.27,1.02.763.763,0,0,0,.58.075Z" transform="translate(32.623 112.729)" fill="#fff"/><path d="M1.28,1.274A.748.748,0,0,0,.22.219.748.748,0,0,0,1.28,1.274Z" transform="translate(16.155 109.58)" fill="#fff"/><path d="M7.715,1.493A.746.746,0,0,0,8.245.219.752.752,0,0,0,7.715,0H.75A.746.746,0,0,0,.22,1.274a.752.752,0,0,0,.53.219Z" transform="translate(26.925 127.85)" fill="#fff"/><path d="M5.626,1.622a.76.76,0,0,0,.92-.523.746.746,0,0,0-.5-.916,9.878,9.878,0,0,0-5.5.5A.771.771,0,0,0,.021,1.6a.756.756,0,0,0,.925.5l-.02.025A8.426,8.426,0,0,1,5.626,1.622Z" transform="translate(42.099 119.53)" fill="#fff"/><path d="M3.506,1.472A.747.747,0,0,0,4.072.843.746.746,0,0,0,3.688.092.753.753,0,0,0,3.106.033L.571.645a.747.747,0,0,0-.565.628.746.746,0,0,0,.384.752.753.753,0,0,0,.581.058Z" transform="translate(54.719 114.474)" fill="#fff"/><path d="M4.55,1.493A.746.746,0,0,0,5.08.219.752.752,0,0,0,4.55,0H.75A.746.746,0,0,0,.22,1.274a.752.752,0,0,0,.53.219Z" transform="translate(13 136.042)" fill="#fff"/><path d="M2.65,1.493A.746.746,0,0,0,3.18.219.752.752,0,0,0,2.65,0H.75A.746.746,0,0,0,.22,1.274a.752.752,0,0,0,.53.219Z" transform="translate(35.155 136.042)" fill="#fff"/><path d="M5.82,1.493A.746.746,0,0,0,6.35.219.752.752,0,0,0,5.82,0H.75A.746.746,0,0,0,.22,1.274a.752.752,0,0,0,.53.219Z" transform="translate(39.585 108.948)" fill="#fff"/><path d="M3.915,1.493A.746.746,0,0,0,4.445.219.752.752,0,0,0,3.915,0H.75A.746.746,0,0,0,.22,1.274a.752.752,0,0,0,.53.219Z" transform="translate(274.435 156.203)" fill="#fff"/><path d="M4.718,1.461A.746.746,0,0,0,5.243.546.771.771,0,0,0,4.318.023L.528.695a.751.751,0,0,0-.5.921.776.776,0,0,0,.92.5l-.02.025Z" transform="translate(274.447 147.934)" fill="#fff"/><path d="M2.394,1.385a.745.745,0,0,0,.27-1.02.775.775,0,0,0-.45-.343A.839.839,0,0,0,1.634.1L.374.733a.792.792,0,0,0-.345.448.746.746,0,0,0,.5.921.838.838,0,0,0,.58-.075h.025Z" transform="translate(277.631 138.628)" fill="#fff"/><path d="M10.86,1.493A.746.746,0,0,0,11.39.219.752.752,0,0,0,10.86,0H.75A.746.746,0,0,0,.22,1.274a.752.752,0,0,0,.53.219Z" transform="translate(253.545 155.576)" fill="#fff"/><path d="M4.545,1.493A.753.753,0,0,0,5.3.747.763.763,0,0,0,4.545,0H.75A.746.746,0,0,0,.22,1.274a.752.752,0,0,0,.53.219Z" transform="translate(263.655 151.794)" fill="#fff"/><path d="M6.673,1.447a.766.766,0,0,0,.5-.921.756.756,0,0,0-.925-.5,10.917,10.917,0,0,1-5.3.587.771.771,0,0,0-.92.5.751.751,0,0,0,.5.921H.573A12.464,12.464,0,0,0,6.673,1.447Z" transform="translate(247.832 149.322)" fill="#fff"/><path d="M5.815,1.493a.773.773,0,0,0,.75-.747A.748.748,0,0,0,5.815,0L.75.632A.778.778,0,0,0,0,1.379a.748.748,0,0,0,.75.747v-.01Z" transform="translate(259.255 146.877)" fill="#fff"/><path d="M7.4,2.294A.747.747,0,1,0,7.4.8L.75,0A.753.753,0,0,0,0,.747a.763.763,0,0,0,.75.747Z" transform="translate(140.435 50.983)" fill="#fff"/><path d="M6.75,1.493A.746.746,0,0,0,7.28.219.752.752,0,0,0,6.75,0h-6A.746.746,0,0,0,.22,1.274a.752.752,0,0,0,.53.219Z" transform="translate(136.42 59.07)" fill="#fff"/><path d="M2.75,1.493A.746.746,0,0,0,3.28.219.752.752,0,0,0,2.75,0h-2A.746.746,0,0,0,.22,1.274a.752.752,0,0,0,.53.219Z" transform="translate(150.42 62.39)" fill="#fff"/><path d="M3.415,1.493A.746.746,0,0,0,3.945.219.752.752,0,0,0,3.415,0H.75A.746.746,0,0,0,.22,1.274a.752.752,0,0,0,.53.219Z" transform="translate(153.755 55.751)" fill="#fff"/><path d="M6.75,1.493A.746.746,0,0,0,7.28.219.752.752,0,0,0,6.75,0h-6A.746.746,0,0,0,.22,1.274a.752.752,0,0,0,.53.219Z" transform="translate(255.775)" fill="#fff"/><path d="M6.75,1.493A.746.746,0,0,0,7.28.219.752.752,0,0,0,6.75,0h-6A.746.746,0,0,0,.22,1.274a.752.752,0,0,0,.53.219Z" transform="translate(266.44 4.648)" fill="#fff"/><path d="M6.085,1.493A.746.746,0,0,0,6.615.219.752.752,0,0,0,6.085,0H.75A.746.746,0,0,0,.22,1.274a.752.752,0,0,0,.53.219Z" transform="translate(277.11 16.593)" fill="#fff"/><path d="M2.069,1.493a.772.772,0,0,0,.53-.219.755.755,0,0,0,.22-.528.745.745,0,0,0-.2-.528A.772.772,0,0,0,2.084,0H.749a.792.792,0,0,0-.53.219.744.744,0,0,0,0,1.055.792.792,0,0,0,.53.219h1.32Z" transform="translate(275.791 25.223)" fill="#fff"/><path d="M5.415,1.493A.746.746,0,0,0,5.945.219.752.752,0,0,0,5.415,0H.75A.753.753,0,0,0,0,.747a.763.763,0,0,0,.75.747Z" transform="translate(259.775 26.551)" fill="#fff"/><path d="M6.085,1.493A.746.746,0,0,0,6.615.219.752.752,0,0,0,6.085,0H.75A.746.746,0,0,0,.22,1.274a.752.752,0,0,0,.53.219Z" transform="translate(263.11 20.574)" fill="#fff"/><path d="M6.535,1.493A.746.746,0,0,0,7.065.219.752.752,0,0,0,6.535,0H.75A.746.746,0,0,0,.22,1.274a.752.752,0,0,0,.53.219Z" transform="translate(12.99 29.353)" fill="#fff"/><path d="M7.365,1.493A.746.746,0,0,0,7.9.219.752.752,0,0,0,7.365,0H.75A.746.746,0,0,0,.22,1.274a.752.752,0,0,0,.53.219Z" transform="translate(13.815 21.127)" fill="#fff"/><path d="M3.25,1.493A.746.746,0,0,0,3.78.219.752.752,0,0,0,3.25,0H.75A.746.746,0,0,0,.22,1.274a.752.752,0,0,0,.53.219Z" transform="translate(22.085 13.721)" fill="#fff"/></g><path d="M92.331,43.577S46.421,42.124,35.1,42.124s-22.795,0-29.965,11.785S-.249,69.965,1.9,70.676s12.5-12.845,19.33-13.2c0,0-15.1,13.711,6.27,6.853,0,0,84.84,17.086,91.295,6.709s18.05-43.06,18.05-43.06L111.4,0Z" transform="translate(201.359 393.5)" fill="#f9a45b"/><path d="M0,38.755,29.23,71.637S67.01,4.489,29.5,0C29.5,0,14.44,4.8,0,38.755Z" transform="translate(311.075 352.889)" fill="#fcc53e"/><g transform="translate(310.55 352.889)"><g transform="translate(0.525)"><path d="M0,38.755,29.23,71.637S67.01,4.489,29.5,0C29.5,0,14.44,4.8,0,38.755Z"/></g><g transform="translate(0 5.387)"><path d="M26.2,10.723c2.57.458,5.165.8,7.765,1,.965.08.96-1.413,0-1.493A80.459,80.459,0,0,1,7.936,3.542Q4.436,1.984,1.131.1A.753.753,0,0,0,.1.369.745.745,0,0,0,.371,1.392v.015A82.124,82.124,0,0,0,26.2,10.723Z" transform="translate(8.015 0)" fill="#fff"/><path d="M23.16,13.284A59.349,59.349,0,0,0,30.375,14.8c.945.139,1.355-1.3.4-1.443A59.593,59.593,0,0,1,7.08,4.445,57.984,57.984,0,0,1,1.31.185C.575-.427-.49.623.25,1.24A60.95,60.95,0,0,0,23.16,13.284Z" transform="translate(0 15.963)" fill="#fff"/></g></g><path d="M53.07,0l1.82,70.831L0,91.823V20.853Z" transform="translate(189.22 306.435)" fill="#fff"/><g transform="translate(189.22 306.435)"><path d="M53.07,0l1.82,70.831L0,91.823V20.853Z" fill="#fff"/></g><g transform="translate(197.083 332.304)"><path d="M25.8,1.478c.915-.294.525-1.732-.4-1.438L.521,7.972C-.394,8.266,0,9.7.921,9.411Z" transform="translate(13.952 7.307)" fill="#13161d"/><path d="M16.737,1.46A.745.745,0,0,0,16.894.1a.753.753,0,0,0-.558-.081Q8.417,2.226.527,4.56A.749.749,0,0,0,.927,6Q8.807,3.66,16.737,1.46Z" transform="translate(14.301 16.392)" fill="#13161d"/><path d="M23.87,1.466a.747.747,0,0,0-.4-1.438Q11.939,2.974.524,6.318a.747.747,0,0,0,.4,1.438Q12.339,4.417,23.87,1.466Z" transform="translate(14.648 25.598)" fill="#13161d"/><path d="M7.325,3.379A52.65,52.65,0,0,1,13.41,1.453c.95-.174.545-1.613-.4-1.438A54.232,54.232,0,0,0,6.925,1.941,64.068,64.068,0,0,1,.54,3.553c-.945.189-.545,1.627.4,1.438v-.02A62.739,62.739,0,0,0,7.325,3.379Z" transform="translate(15.308 34.594)" fill="#13161d"/><path d="M22.976,1.478c.915-.289.525-1.732-.4-1.438L.521,7.007C-.394,7.3,0,8.739.921,8.445Z" transform="translate(16.027 41.224)" fill="#13161d"/><path d="M.7,1.543a.777.777,0,0,0-.555.722,35.584,35.584,0,0,0,0,6.321.765.765,0,0,0,.3.586.773.773,0,0,0,.648.136,25.568,25.568,0,0,0,3.035-.632c.5-.134,1-.289,1.5-.458s.925-.378,1.05-.941a20.81,20.81,0,0,0,.345-3.2c.08-1.11.11-2.22.1-3.33a.75.75,0,0,0-1.5,0q0,1.627-.1,3.25c-.03.5-.075,1.03-.13,1.543a6.184,6.184,0,0,1-.215,1.523l.19-.333c.075-.075,0,0-.075,0l-.28.095-.635.2c-.4.119-.81.229-1.22.328a24.666,24.666,0,0,1-2.5.5l.945.722a35.584,35.584,0,0,1,0-6.321l-.55.717L5.971,1.712a.747.747,0,0,0-.4-1.438l.035.01Z" transform="translate(0.442 31.787)" fill="#13161d"/><path d="M.7,1.543a.767.767,0,0,0-.555.717,35.584,35.584,0,0,0,0,6.321.765.765,0,0,0,.3.586.773.773,0,0,0,.648.136,25.569,25.569,0,0,0,3.055-.627c.5-.134,1-.289,1.5-.453s.925-.378,1.05-.946a20.745,20.745,0,0,0,.345-3.2c.08-1.11.11-2.22.1-3.33a.75.75,0,0,0-1.5,0q0,1.627-.09,3.25c-.035.5-.08,1.03-.135,1.548A6.179,6.179,0,0,1,5.2,7.062l.19-.328c.075-.08,0,0-.075.025l-.28.095-.635.2c-.4.119-.81.234-1.22.333-.815.2-1.645.358-2.5.5l.945.717a35.584,35.584,0,0,1,0-6.321L1.076,3,5.991,1.737A.747.747,0,0,0,5.591.3l.015-.02Z" transform="translate(0.222 15.896)" fill="#13161d"/><path d="M.7,1.543a.777.777,0,0,0-.555.717,35.173,35.173,0,0,0,0,6.326.755.755,0,0,0,.3.585.763.763,0,0,0,.646.132A25.554,25.554,0,0,0,4.142,8.68c.5-.139,1-.289,1.5-.458s.925-.378,1.05-.941a20.874,20.874,0,0,0,.345-3.205c.08-1.1.11-2.215.1-3.33a.75.75,0,0,0-1.5,0q0,1.627-.09,3.255c-.035.5-.08,1.03-.135,1.543A6.145,6.145,0,0,1,5.2,7.037l.19-.328c.075-.08,0,0-.075,0l-.28.095c-.21.07-.425.139-.635.2-.4.124-.81.234-1.22.333a24.666,24.666,0,0,1-2.5.5l.95.722a35.173,35.173,0,0,1,0-6.326l-.55.722L5.992,1.692a.749.749,0,0,0-.4-1.443l.015.03Z" fill="#13161d"/><path d="M.7,1.538a.777.777,0,0,0-.555.722,35.579,35.579,0,0,0,0,6.321.765.765,0,0,0,.3.586.773.773,0,0,0,.648.136,25.569,25.569,0,0,0,3.055-.627c.5-.134,1-.289,1.5-.458s.925-.378,1.05-.941a20.81,20.81,0,0,0,.345-3.2c.08-1.11.11-2.22.1-3.329a.75.75,0,0,0-1.5,0q0,1.627-.09,3.25c-.035.5-.08,1.03-.135,1.543A6.184,6.184,0,0,1,5.2,7.062l.19-.333c.075-.075,0,0-.075.025l-.28.095-.635.2c-.4.119-.81.229-1.22.328a24.666,24.666,0,0,1-2.475.5l.945.722a35.579,35.579,0,0,1,0-6.321L1.1,3,6.016,1.737A.747.747,0,0,0,5.616.3l-.01-.02Z" transform="translate(0.112 46.573)" fill="#13161d"/></g><path d="M159.385,0A12.217,12.217,0,0,1,171.63,12.188V132.947a12.217,12.217,0,0,1-12.245,12.188H12.245A12.217,12.217,0,0,1,0,132.947V12.188A12.217,12.217,0,0,1,12.245,0Z" transform="translate(75.54 132.215)" fill="#40403f"/><g transform="translate(26.776 132.215)"><g transform="translate(48.764)"><path d="M159.385,0A12.217,12.217,0,0,1,171.63,12.188V132.947a12.217,12.217,0,0,1-12.245,12.188H12.245A12.217,12.217,0,0,1,0,132.947V12.188A12.217,12.217,0,0,1,12.245,0Z" fill="#40403f"/></g><g transform="translate(0 30.274)"><path d="M171.509,36c-17.67-3.14-34.84-8.535-51.875-14.075a52.435,52.435,0,0,1-10.13-4.006c-2.775-1.6-5.64-4.071-6.245-7.371a8.8,8.8,0,0,1,2.26-7.515,4.835,4.835,0,0,1,3.375-1.538,1.134,1.134,0,0,1,.935.259,2.244,2.244,0,0,1,.435,1.045,4.807,4.807,0,0,1-.22,2.742c-1.35,3.787-6.025,4.808-9.465,5.753q-6.425,1.752-12.96,3.046a236.417,236.417,0,0,1-26.58,3.648C43.174,19.48,25.219,19.355,7.3,19.037c-2.195-.035-4.385-.08-6.58-.119a.747.747,0,0,0,0,1.493c19.26.368,38.56.717,57.785-.727a247.713,247.713,0,0,0,28.265-3.658q7.055-1.359,14-3.24c3.56-.97,7.815-1.991,9.96-5.266a6.838,6.838,0,0,0,1.07-4.683,4.964,4.964,0,0,0-.845-2.09,2.044,2.044,0,0,0-1.82-.742c-2.735-.119-5,1.812-6.235,4.106a10.19,10.19,0,0,0-.7,8.187c1.2,3.185,4.065,5.549,7,7.147a61.982,61.982,0,0,0,10.865,4.181q6.89,2.24,13.815,4.39c9.27,2.852,18.615,5.475,28.09,7.59,18.34,4.051,37.38,6.047,56.04,3.021q3.535-.577,7-1.384c.94-.219.545-1.657-.4-1.443h-.005C207.149,39.83,189.049,39.113,171.509,36Z" transform="translate(0 0)" fill="#fff"/></g></g><path d="M159.385,0A12.217,12.217,0,0,1,171.63,12.188V132.947a12.217,12.217,0,0,1-12.245,12.188H12.245A12.217,12.217,0,0,1,0,132.947V12.188A12.217,12.217,0,0,1,12.245,0Z" transform="translate(275.41 132.215)" fill="#40403f"/><g transform="translate(261.149 132.215)"><g transform="translate(14.261)"><path d="M159.385,0A12.217,12.217,0,0,1,171.63,12.188V132.947a12.217,12.217,0,0,1-12.245,12.188H12.245A12.217,12.217,0,0,1,0,132.947V12.188A12.217,12.217,0,0,1,12.245,0Z" fill="#40403f"/></g><g transform="translate(0 23.144)"><path d="M51.351,16.755A367.533,367.533,0,0,0,104,23.584q13.285.791,26.6.761c4.415,0,8.83-.055,13.24-.2a56.366,56.366,0,0,0,12.685-1.533c6.735-1.807,13.5-6.365,15.275-13.438.17-.672.5-1.428-.045-1.991a5.006,5.006,0,0,0-1.9-1.07,6.956,6.956,0,0,0-3.97-.06,8.045,8.045,0,0,0-5.875,6,11.261,11.261,0,0,0,2.825,9.4c2.45,2.877,6.07,4.479,9.645,5.475a77.366,77.366,0,0,0,12.8,2.2,99.524,99.524,0,0,0,14.1.443q3.375-.134,6.74-.5c.95-.1.96-1.6,0-1.493a99.282,99.282,0,0,1-29.43-1.214c-4.08-.8-8.445-1.921-11.61-4.763-2.77-2.488-4.795-6.744-3.25-10.412,1.335-3.19,6.045-5.3,8.97-2.887l-.2-.727c-.835,4.912-4.315,8.809-8.56,11.228-5.04,2.867-11,3.534-16.7,3.777-11.855.5-23.78.338-35.63-.2a360.5,360.5,0,0,1-70.68-9.954A287.306,287.306,0,0,1,.9.058C.006-.305-.384,1.138.5,1.5v-.02A293.927,293.927,0,0,0,51.351,16.755Z" transform="translate(0 0)" fill="#fff"/></g></g><path d="M80.86,3.27s23.88,3.981,33.13,13.492S131.3,66.954,131.3,66.954H0s11.04-49.3,20.885-57.025S55.54,0,55.54,0Z" transform="translate(105.46 210.396)" fill="#fff"/><g transform="translate(105.46 209.639)"><g transform="translate(0 0.757)"><path d="M80.86,3.27s23.88,3.981,33.13,13.492S131.3,66.954,131.3,66.954H0s11.04-49.3,20.885-57.025S55.54,0,55.54,0Z" fill="#fff"/></g><g transform="translate(39.665 0)"><path d="M9.261,11.268c1.575,1.553,3.175,3.091,4.85,4.539a14.84,14.84,0,0,0,5.34,3.135,27.31,27.31,0,0,0,6.04,1.04,19.046,19.046,0,0,0,5.77-.378,11.488,11.488,0,0,0,7.845-6.42c1.67-3.608,1.95-7.684,2.09-11.6.035-.961-1.465-.961-1.5,0-.225,6.216-1,14.244-8.08,16.374-3.47,1.045-7.44.647-10.9-.224a12.905,12.905,0,0,1-5.295-2.777c-1.565-1.324-3.045-2.752-4.5-4.181A130.4,130.4,0,0,1,1.241.255C.631-.492-.424.568.181,1.31l-.01,0A132.073,132.073,0,0,0,9.261,11.268Z" transform="translate(7.084)" fill="#f69821"/><path d="M0,23.944a.751.751,0,0,0,1.28.528.745.745,0,0,0,.22-.528A109.388,109.388,0,0,1,4.15.931C4.365-.005,2.915-.4,2.705.537V.552A111.4,111.4,0,0,0,0,23.944Z" transform="translate(0 45.45)" fill="#fff"/><path d="M3.174,24.989c.115.941,1.615.956,1.5,0Q3.174,12.756,1.454.543C1.319-.407-.126,0,.009.936Q1.709,12.945,3.174,24.989Z" transform="translate(65.576 46.887)" fill="#fff"/></g></g><path d="M60.375,20.831c-.55-5.475-7.21-5.34-7.21-5.34a6.093,6.093,0,0,0,1.91-7.963C51.47.446,17.02-6.84,12.655,11.9c0,0-29.645,5.972,1.81,44.792L53.925,28.3S60.925,26.306,60.375,20.831Z" transform="translate(146.53 139.224)" fill="#13161d"/><g transform="translate(146.53 139.224)"><path d="M60.375,20.831c-.55-5.475-7.21-5.34-7.21-5.34a6.093,6.093,0,0,0,1.91-7.963C51.47.446,17.02-6.84,12.655,11.9c0,0-29.645,5.972,1.81,44.792L53.925,28.3S60.925,26.306,60.375,20.831Z" transform="translate(0)"/><g transform="translate(28.965 13.347)"><path d="M11.44,8.643a9.462,9.462,0,0,0,4.9-3.344,3.935,3.935,0,0,0-.5-5.116c-.74-.607-1.8.443-1.06,1.055,1.285,1.05.8,2.857-.23,3.9a9.684,9.684,0,0,1-4.24,2.289c-3,.866-6.5.637-9-1.379-.74-.6-1.81.453-1.06,1.055H.26A11.688,11.688,0,0,0,11.44,8.643Z" transform="translate(0)" fill="#fff"/></g></g><path d="M37.532,36V46.145s1,10.148-8.22,8.182-17.1-11.447-17.1-11.447V21.928S-4.208,19.36,1.032,8.162c4.6-9.819,14.14-1,14.14-1L24.717,0s19.81,4.8,26.955,0C51.672,0,59.892,34.694,37.532,36Z" transform="translate(148.783 167.521)" fill="#f9a45b"/><path d="M3.168,7.623l1.4-.378A10.29,10.29,0,0,0,1.113,3.736a.749.749,0,0,0-.76,1.289,8.723,8.723,0,0,1,2.92,2.986.755.755,0,0,0,1.4-.378C4.5,4.861,4.143,1.885,1.743.1A.753.753,0,0,0,.716.369.745.745,0,0,0,.983,1.392v-.01C2.883,2.79,3.038,5.488,3.168,7.623Z" transform="translate(157.432 176.232)" fill="#13161d"/><path d="M4.162,8.484c.16.607.31,1.214.455,1.827a3.569,3.569,0,0,1,.225,1c0,.2-.085.209-.3.3a11.715,11.715,0,0,1-3.815.886c-.96.065-.965,1.558,0,1.493a13.818,13.818,0,0,0,4.425-1.025,1.761,1.761,0,0,0,1.16-1.13,4.7,4.7,0,0,0-.295-2.14A71.235,71.235,0,0,0,3.132.5c-.345-.886-1.8-.5-1.445.4V.889A70.885,70.885,0,0,1,4.162,8.484Z" transform="translate(186.588 175.222)" fill="#13161d"/><path d="M5.148,4.366a13.719,13.719,0,0,0,5.773.769c.955-.085.96-1.578,0-1.493a12.263,12.263,0,0,1-5.2-.659A12.218,12.218,0,0,1,1.286.218C.6-.459-.464.6.221,1.273A13.669,13.669,0,0,0,5.148,4.366Z" transform="translate(175.614 191.207)" fill="#13161d"/><path d="M8.5,5.916A23.5,23.5,0,0,1,0,0S5,13.209,18.73,14.751V7.615A23.6,23.6,0,0,1,8.5,5.916Z" transform="translate(167.585 195.909)" fill="#13161d"/><path d="M1.93,3.842A1.921,1.921,0,1,1,3.86,1.921,1.926,1.926,0,0,1,1.93,3.842Z" transform="translate(176.73 176.972)" fill="#13161d"/><path d="M1.93,3.842A1.921,1.921,0,1,1,3.86,1.921,1.926,1.926,0,0,1,1.93,3.842Z" transform="translate(194.885 177.251)" fill="#13161d"/><path d="M75.764,41.4S5.939,35.609,1.544,19.181A41.783,41.783,0,0,1,.724,0H34.049V3.981s29.3,7.177,50.925,9.008,29.32,5.972,33.6,15.712,5,25.133,0,25.133c0,0,.24,8.3-6.195,6.878,0,0-3.395,7.246-7.14-3.245,0,0-2.775,3.777-4.7-1.115a95.468,95.468,0,0,0-7.25-13.686S81.724,42.7,75.764,41.4Z" transform="translate(110.071 277.345)" fill="#f9a45b"/><path d="M.219,4.088a.744.744,0,0,0,0,1.055.768.768,0,0,0,1.06,0,17.369,17.369,0,0,1,8.29-3.688A.745.745,0,0,0,9.723.108.753.753,0,0,0,9.174.017,18.74,18.74,0,0,0,.219,4.088Z" transform="translate(135.066 280.334)" fill="#13161d"/><path d="M5.146,19.666a.747.747,0,0,0,1.277.525.755.755,0,0,0,.223-.525A75.53,75.53,0,0,0,1.471.52a.781.781,0,0,0-.92-.5A.751.751,0,0,0,.026.943V.9A74.163,74.163,0,0,1,5.146,19.666Z" transform="translate(216.694 317.765)" fill="#13161d"/><path d="M5.455,21.3c.155.951,1.6.547,1.445-.393A106.041,106.041,0,0,0,1.495.5C1.165-.388-.285.005.05.9v0A106.824,106.824,0,0,1,5.455,21.3Z" transform="translate(222.605 310.62)" fill="#13161d"/><path d="M3.675,13.738c.185.941,1.63.542,1.445-.4A84.555,84.555,0,0,0,1.495.5c-.33-.9-1.78-.5-1.445.4v.01A84.555,84.555,0,0,1,3.675,13.738Z" transform="translate(211.6 321.701)" fill="#13161d"/><path d="M9.185,9.454S25.98-7.612,48.15,4.114s8.5,33.439,8.5,33.439S60.46,58.581,66.865,64.1h-39l-1.2-22.779L3.4,33.209S-7.265,18.7,9.185,9.454Z" transform="translate(330.84 132.023)" fill="#13161d"/><g transform="translate(330.84 132.023)"><g transform="translate(0 0)"><path d="M9.185,9.454S25.98-7.612,48.15,4.114s8.5,33.439,8.5,33.439S60.46,58.581,66.865,64.1h-39l-1.2-22.779L3.4,33.209S-7.265,18.7,9.185,9.454Z" transform="translate(0)"/></g><g transform="translate(29.42 23.723)"><path d="M4.965,12.735c.545.786,1.845.04,1.3-.752A29.96,29.96,0,0,1,1.46.537C1.28-.4-.165-.005.015.935v.01A30.963,30.963,0,0,0,4.965,12.735Z" transform="translate(18.774 29.1)" fill="#fff"/><path d="M2.915,8.965a.777.777,0,0,0,1.025.269.759.759,0,0,0,.27-1.025A13.027,13.027,0,0,1,1.5.719C1.47-.237-.03-.242,0,.719A14.391,14.391,0,0,0,2.915,8.965Z" transform="translate(13.969 34.796)" fill="#fff"/><path d="M5.234,7.226A9.086,9.086,0,0,0,8.818,8.8a9.106,9.106,0,0,0,3.916-.079.747.747,0,0,0-.395-1.438C7.339,8.659,3.534,4.215,1.394.368.929-.473-.366.278.1,1.119L.1,1.1A17.614,17.614,0,0,0,5.234,7.226Z" transform="translate(0 0)" fill="#fff"/><path d="M2.41,3.354a6.818,6.818,0,0,0,3.1.917A.738.738,0,0,0,6.033,3a.772.772,0,0,0-.525-.224l-.36-.025h0l-.175-.03a5.165,5.165,0,0,1-.665-.159L4,2.464,3.833,2.4c-.125-.045,0,0-.055,0-.2-.095-.41-.194-.605-.309a5.067,5.067,0,0,1-.54-.358c-.185-.134.05.045-.05-.035l-.14-.114L2.2,1.364a4.309,4.309,0,0,1-.8-1A.752.752,0,0,0,.024.559.744.744,0,0,0,.1,1.126l-.015-.01A6.781,6.781,0,0,0,2.41,3.354Z" transform="translate(9.536 0.332)" fill="#fff"/></g></g><path d="M16.079,46.509v5.833l20.96-5.574,1.105-14.816s14.5,1.04,14.38-8.222-14.575-4.156-14.575-4.156-13.1.851-17-8.53C20.924,11.054,9.579,9.426,7.664,0,7.664,0-14.271,44.568,16.079,46.509Z" transform="translate(332.421 149.141)" fill="#f9a45b"/><path d="M.29,8.653c-.3,1.125-.635,2.464.5,3.265a10.165,10.165,0,0,0,1.8.881l2.125,1c.875.4,1.635-.891.76-1.289-1.17-.537-2.38-1.025-3.5-1.617-.57-.294-.5-.687-.34-1.249s.3-1.14.465-1.707A67.442,67.442,0,0,1,4.485.9C4.84,0,3.39-.385,3.04.5L2.995.466A75.565,75.565,0,0,0,.29,8.653Z" transform="translate(339.115 165.039)" fill="#13161d"/><path d="M5.569,3.515a9.8,9.8,0,0,0,4.5-2.26c.72-.642-.345-1.7-1.06-1.055A8.265,8.265,0,0,1,5.178,2.08,8.287,8.287,0,0,1,.917,1.8C0,1.5-.393,2.937.517,3.246h.02A9.824,9.824,0,0,0,5.569,3.515Z" transform="translate(343.083 183.098)" fill="#13161d"/><path d="M1.975,3.932A1.966,1.966,0,1,1,3.95,1.966,1.97,1.97,0,0,1,1.975,3.932Z" transform="translate(348.62 167.536)" fill="#13161d"/><path d="M1.975,3.932A1.966,1.966,0,1,1,3.95,1.966,1.97,1.97,0,0,1,1.975,3.932Z" transform="translate(335.15 165.908)" fill="#13161d"/><path d="M.021,6.914a.751.751,0,0,0,.443.868.757.757,0,0,0,.932-.3,5.008,5.008,0,0,1,3.96-1.946.747.747,0,1,0,0-1.493A6.555,6.555,0,0,0,.1,6.735l1.37.572A10.877,10.877,0,0,1,4.886,1.275.75.75,0,0,0,3.821.22,12.244,12.244,0,0,0,.021,6.914Z" transform="translate(370.789 170.157)" fill="#13161d"/><path d="M66.02,0V7.376S88.875,9.088,99.955,23.1s14.4,58.344,14.4,58.344H0S9.82,32.335,18.2,23.4,44.78,11.949,44.78,11.949l.28-6.375Z" transform="translate(303.44 195.909)" fill="#f16823"/><g transform="translate(303.44 195.909)"><path d="M66.02,0V7.376S88.875,9.088,99.955,23.1s14.4,58.344,14.4,58.344H0S9.82,32.335,18.2,23.4,44.78,11.949,44.78,11.949l.28-6.375Z" fill="#f16823"/><g transform="translate(42.421 0.091)"><path d="M28.139,1.466a.747.747,0,0,0-.4-1.438Q14.279,3.511.544,5.875c-.95.164-.55,1.6.395,1.438l-.015,0Q14.639,4.98,28.139,1.466Z" transform="translate(0 4.724)" fill="#fff"/><path d="M.024,7.5a.766.766,0,0,0,.5.916.751.751,0,0,0,.92-.5,31.335,31.335,0,0,0,.3-7.142A.768.768,0,0,0,1.034,0a.758.758,0,0,0-.75.747L.269.756A29.546,29.546,0,0,1,.024,7.5Z" transform="translate(7.605 2.079)" fill="#fff"/><path d="M0,8.28a.753.753,0,0,0,.75.747A.763.763,0,0,0,1.5,8.28c.175-2.518.3-5.037.375-7.56C1.9-.24.405-.24.375.72.305,3.244.175,5.762,0,8.28Z" transform="translate(16.809)" fill="#fff"/><path d="M2.5,35.784q.235,4.977.4,9.984c.035.961,1.535.966,1.5,0q-.58-17.568-2-35.1-.4-4.977-.88-9.954c-.09-.951-1.59-.961-1.5,0H0Q1.665,18.215,2.5,35.784Z" transform="translate(40.664 45.94)" fill="#fff"/></g></g><path d="M20.815,0,0,3.9,12.74,53.1H48.38Z" transform="translate(278.105 224.247)" fill="#f16823"/><path d="M3.686,16.822c.15.951,1.6.547,1.45-.393C4.3,11.054,3.436,5.639,1.5.5,1.161-.388-.289.005.051.9V.921C1.986,6.037,2.851,11.447,3.686,16.822Z" transform="translate(310.299 247.329)" fill="#fff"/><path d="M0,25.216a.751.751,0,0,0,1.28.528.745.745,0,0,0,.22-.528c.14-8.262,2.8-16.239,3-24.5A.751.751,0,0,0,3,.72C2.79,8.977.13,16.955,0,25.216Z" transform="translate(326.765 251.885)" fill="#fff"/><path d="M13.18,0S9.915,10.113,0,11.487V7.411S6.59,7.669,13.18,0Z" transform="translate(348.5 188.239)" fill="#13161d"/><path d="M36.155,0A2.338,2.338,0,0,1,38.41,1.7L44.01,21.6A2.327,2.327,0,0,1,42.8,24.317a2.349,2.349,0,0,1-1.039.244H9.04a2.339,2.339,0,0,1-2.22-1.588L.12,3.066A2.326,2.326,0,0,1,1.27.258,2.349,2.349,0,0,1,2.335,0Z" transform="translate(264.39 195.202)" fill="#13161d"/><path d="M21.66,0H0L2.7,8.4l20.815-3.9Z" transform="translate(275.41 219.753)" fill="#f9a45b"/><path d="M10.724,0a2.269,2.269,0,0,1,2.185,1.632,2.262,2.262,0,0,1-1.1,2.627,2.283,2.283,0,0,1-.986.269l-8.33.348A2.285,2.285,0,0,1,.234,3.33L.119,2.986A2.262,2.262,0,0,1,1.239.248,2.284,2.284,0,0,1,2.279,0Z" transform="translate(263.516 202.528)" fill="#f9a45b"/><path d="M10.712,0A2.279,2.279,0,0,1,12.9,1.637a2.267,2.267,0,0,1-1.109,2.627,2.288,2.288,0,0,1-.986.27l-8.325.343A2.27,2.27,0,0,1,.227,3.334l-.11-.348A2.267,2.267,0,0,1,1.232.254,2.288,2.288,0,0,1,2.267,0Z" transform="translate(264.883 207.037)" fill="#f9a45b"/><path d="M10.724,0a2.274,2.274,0,0,1,2.185,1.632,2.262,2.262,0,0,1-1.1,2.627,2.283,2.283,0,0,1-.986.269l-8.33.348A2.285,2.285,0,0,1,.234,3.334L.119,2.986A2.262,2.262,0,0,1,1.239.248,2.284,2.284,0,0,1,2.279,0Z" transform="translate(266.221 211.581)" fill="#f9a45b"/><path d="M9.382,0A2,2,0,0,1,11.3,1.433a1.988,1.988,0,0,1-.97,2.294,2.007,2.007,0,0,1-.86.239l-7.29.3A2,2,0,0,1,.207,2.916L.1,2.618a1.988,1.988,0,0,1,.982-2.4A2.007,2.007,0,0,1,1.992,0Z" transform="translate(267.588 216.105)" fill="#f9a45b"/><path d="M10.224,1.493a.747.747,0,0,0,0-1.493L.724.194a.747.747,0,0,0,0,1.493Z" transform="translate(264.856 206.077)" fill="#13161d"/><path d="M10.952,1.5c.955-.095.96-1.588,0-1.493Q5.852.5.722.557a.747.747,0,0,0,0,1.493Q5.852,1.985,10.952,1.5Z" transform="translate(265.853 210.815)" fill="#13161d"/><path d="M8.507,1.495c.96-.055.965-1.548,0-1.493L.722.449C-.238.5-.243,2,.722,1.942Z" transform="translate(268.663 215.546)" fill="#13161d"/><path d="M8,14.6S19.88-6.092,44.955,1.791s20.79,28.9,20.79,28.9S80.59,42.378,77.29,72.5s-1,47.852,17.16,44.239c0,0-16.83,31.2-44.875,13.139S32.42,63.863,32.42,63.863L1.91,41.248S-5.2,24.78,8,14.6Z" transform="translate(323.335 262.753)" fill="#13161d"/><g transform="translate(323.335 262.753)"><g transform="translate(0 0)"><path d="M8,14.6S19.88-6.092,44.955,1.791s20.79,28.9,20.79,28.9S80.59,42.378,77.29,72.5s-1,47.852,17.16,44.239c0,0-16.83,31.2-44.875,13.139S32.42,63.863,32.42,63.863L1.91,41.248S-5.2,24.78,8,14.6Z" transform="translate(0 0)"/></g><g transform="translate(19.746 23.516)"><path d="M16.009,15.368a13.34,13.34,0,0,0,5.965-.174.749.749,0,0,0,.548-.627.747.747,0,0,0-.372-.744.754.754,0,0,0-.57-.072c-4.185,1.13-8.64-.378-11.97-2.986C6.069,8.012,3.609,4.17,1.384.347a.751.751,0,0,0-1.355.2A.743.743,0,0,0,.089,1.1v.015C3.7,7.335,8.439,13.914,16.009,15.368Z" transform="translate(0 0)" fill="#fff"/><path d="M3.4,4.106a6.694,6.694,0,0,0,4.406.28.749.749,0,0,0-.4-1.443,5.177,5.177,0,0,1-3.456-.209A5.146,5.146,0,0,1,1.411.394.752.752,0,0,0,.149.3a.744.744,0,0,0-.033.846H.141A6.654,6.654,0,0,0,3.4,4.106Z" transform="translate(15.388 4.303)" fill="#fff"/><path d="M2.377,17.033c-.64,6.331-1.5,12.641-2.09,18.982A46.107,46.107,0,0,0,.352,46.839a.761.761,0,0,0,.925.5.766.766,0,0,0,.525-.916c-.93-6.435.25-13.054.97-19.454.355-3.18.73-6.36,1.065-9.546a48.177,48.177,0,0,0,.3-8.361A19.234,19.234,0,0,0,1.582.355c-.5-.821-1.795-.07-1.295.752C3.182,5.869,2.917,11.672,2.377,17.033Z" transform="translate(45.542 14.908)" fill="#fff"/><path d="M2.02,19.812a.75.75,0,0,0,1.445-.4A46.575,46.575,0,0,1,1.8.711C1.915-.24.415-.235.3.711A47.64,47.64,0,0,0,2.02,19.812Z" transform="translate(39.434 47.603)" fill="#fff"/></g></g><path d="M17.131,52.481V67.954L43.2,59.414V40.039s15.5.134,15.18-12.148-14.85-3.9-14.85-3.9S17.791,23.028,8.556,0C8.556,0-15.534,49.495,17.131,52.481Z" transform="translate(323.444 284.95)" fill="#f9a45b"/><path d="M1.56,5.174C1.06,6.752.46,8.33.06,9.937c-.38,1.493,1.115,2.289,2.25,2.916A13.2,13.2,0,0,0,6.355,14.3c.945.174,1.35-1.264.4-1.438a11.887,11.887,0,0,1-3.5-1.194,11.006,11.006,0,0,1-1.5-.961c-.29-.224-.265-.249-.16-.6s.22-.7.335-1.045L4.505.914C4.8,0,3.35-.395,3.06.521Z" transform="translate(329.94 303.515)" fill="#13161d"/><path d="M6.569,4.064a20.429,20.429,0,0,0,6.625-2.658c.82-.5.065-1.8-.755-1.289a19.174,19.174,0,0,1-5.85,2.414c-1.8.413-3.92.747-5.5-.393C.3,1.58-.451,2.874.329,3.427H.309C2.124,4.716,4.5,4.487,6.569,4.064Z" transform="translate(333.551 323.632)" fill="#13161d"/><path d="M.96,3.772A18.333,18.333,0,0,0,.19,5.6,2.433,2.433,0,0,0,.26,7.634a.762.762,0,0,0,1.18.149A11.8,11.8,0,0,1,6.255,5.146a.747.747,0,0,0-.4-1.438,13.483,13.483,0,0,0-5.5,3.021l1.18.149c-.205-.353.085-.9.22-1.249.205-.5.435-1.025.68-1.523A20.771,20.771,0,0,1,4.265,1.12.755.755,0,0,0,3.995.094.772.772,0,0,0,2.97.363l.02.02A20.1,20.1,0,0,0,.96,3.772Z" transform="translate(368.715 311.526)" fill="#13161d"/><path d="M2.5,4.977A2.488,2.488,0,1,1,5,2.488,2.494,2.494,0,0,1,2.5,4.977Z" transform="translate(342.105 306.44)" fill="#13161d"/><path d="M17.255,0S11.52,11.357,0,12.168V5.589A31.1,31.1,0,0,0,17.255,0Z" transform="translate(340.575 331.842)" fill="#13161d"/><path d="M63.2,0s46.425,19.41,23.085,133.464H0S10.74,52.506,37.135,8.54Z" transform="translate(303.44 344.348)" fill="#fcc53e"/><g transform="translate(303.44 344.348)"><path d="M63.2,0s46.425,19.41,23.085,133.464H0S10.74,52.506,37.135,8.54Z" fill="#f2e41c"/></g><g transform="translate(284.728 348.164)"><path d="M41.8,12.516q20.5-2.284,40.67-6.176,11.33-2.185,22.56-4.877c.935-.224.54-1.662-.4-1.438Q84.662,4.8,64.357,7.987q-20.19,3.165-40.58,4.723-11.5.881-23.055,1.244c-.96.03-.965,1.523,0,1.493l-.02.01Q21.3,14.8,41.8,12.516Z" transform="translate(23.975 17.476)" fill="#fff"/><path d="M47.805,13.5q23.31-2.175,46.36-6.47,13-2.439,25.875-5.564c.935-.229.54-1.672-.4-1.443q-22.77,5.534-46,8.924T26.97,13.542q-13.105.677-26.22.667a.747.747,0,1,0,0,1.493l.005-.025Q24.315,15.677,47.805,13.5Z" transform="translate(16.667 40.488)" fill="#fff"/><path d="M25.64,14.449Q38.07,14,50.445,13q12.4-1,24.74-2.543t24.68-3.638q12.255-2.085,24.415-4.7c1-.214,2-.438,3-.657s.545-1.647-.395-1.438q-12.08,2.673-24.27,4.818Q90.345,6.988,77.99,8.606q-12.27,1.6-24.605,2.653t-24.7,1.578q-12.425.5-24.865.5H.75a.747.747,0,1,0,0,1.493L.775,14.8Q13.21,14.9,25.64,14.449Z" transform="translate(23.327 72.07)" fill="#fff"/><path d="M26.8,10.7q13.065.124,25.945-.358,13.035-.5,26.03-1.568t25.8-2.762q12.9-1.677,25.715-3.981l3.195-.577c.945-.174.545-1.613-.4-1.438q-25.555,4.688-51.465,7T29.772,9.227Q15.237,9.167.722,8.351c-.965-.055-.96,1.443,0,1.493h.01Q13.732,10.575,26.8,10.7Z" transform="translate(0 108.039)" fill="#fff"/><path d="M41.835,3.7l11.5-2.24c.945-.184.545-1.627-.4-1.443L12.04,7.979.54,10.224c-.945.184-.545,1.622.4,1.438Z" transform="translate(46.177)" fill="#fff"/></g><path d="M97.579,48.665S58.744,24.647,48.694,18.635,27.019-2.114,22.524.255s5.55,16.05,5.55,16.05a35.456,35.456,0,0,1-15.59-6.843C5.079,3.674-.081,6.043,3.029,11.568c0,0-6.815,1.314,0,11.312,0,0-4.025.582,1,8.58S23.059,45.5,34.954,53.926s56.97,41.806,75.8,34.992,29.835-45.185,29.835-45.185S128.244,18.476,116.349,11.6Z" transform="translate(225.756 379.623)" fill="#f9a45b"/><path d="M3.154,19.393c.09.946,1.6.956,1.5,0A139.668,139.668,0,0,0,1.469.535C1.244-.4-.2-.007.024.928h.01A136.5,136.5,0,0,1,3.154,19.393Z" transform="translate(321.531 428.026)" fill="#13161d"/><path d="M15.841,12.165a.746.746,0,0,0,.4-1.438A42.77,42.77,0,0,1,1.266.236C.611-.476-.449.584.206,1.291A44.387,44.387,0,0,0,15.841,12.165Z" transform="translate(228.069 390.885)" fill="#13161d"/><path d="M13.994,9.86c.9.353,1.285-1.09.4-1.443A42.213,42.213,0,0,1,1.294.2c-.7-.652-1.77.4-1.06,1.055A44.12,44.12,0,0,0,13.994,9.86Z" transform="translate(228.096 401.193)" fill="#13161d"/><path d="M15.323,9.975c.875.373,1.64-.911.755-1.289a74.254,74.254,0,0,1-15-8.545C.3-.427-.447.867.323,1.43A74.119,74.119,0,0,0,15.323,9.975Z" transform="translate(228.177 407.667)" fill="#13161d"/><path d="M8.185,1.493a.773.773,0,0,0,.75-.747A.758.758,0,0,0,8.185,0,14.6,14.6,0,0,0,.24,3.6c-.72.642.345,1.7,1.06,1.055A12.826,12.826,0,0,1,8.185,1.493Z" transform="translate(221.965 446.244)" fill="#13161d"/><path d="M8.11,1.46A.745.745,0,0,0,8.268.1.753.753,0,0,0,7.71.021,37.789,37.789,0,0,0,.375,3.008C-.48,3.46.28,4.749,1.13,4.3l-.02-.015A35.941,35.941,0,0,1,8.11,1.46Z" transform="translate(229.07 453.773)" fill="#13161d"/><path d="M10.79,0,34.76,68.71l69.285,1.6,3.175,10.516h-81.7L0,0Z" transform="translate(129.335 396.984)" fill="#40403f"/><path d="M0,41.5S42.425,38.1,48.28,4.091C48.28,4.091,11.28-18.255,0,41.5Z" transform="translate(366.335 416.323)" fill="#f5cdb4"/><path d="M16.385,71.667C16.385,71.637,43.23,17.5,10.04,0,10.04,0-16.32,31.558,16.385,71.667Z" transform="translate(446.555 352.889)" fill="#f5cdb4"/><path d="M0,64.14S51.865,54.032,44.055.058C44.055.058,9.15-4.367,0,64.14Z" transform="translate(370.56 318.864)" fill="#f5cdb4"/><path d="M3.588.008S26.528-1.734,19.7,46.994C19.7,46.994-10.077,28.187,3.588.008Z" transform="translate(451.542 288.257)" fill="#f5cdb4"/><path d="M6.713,2.988a16.1,16.1,0,0,1,4.145,5.475A48.153,48.153,0,0,1,15.573,22.9c1.84,10.9.5,22.008-1.34,32.807-1.9,11.2-3.94,22.4-5.65,33.614q-2.445,16.1-4.31,32.285-1.9,16.633-3.2,33.315l-.33,4.325c-.07.961,1.43.956,1.5,0q1.29-17.314,3.18-34.579,1.86-16.782,4.38-33.489C11.548,79.6,13.633,68.09,15.6,56.554c1.89-11.1,3.3-22.441,1.5-33.648A49.906,49.906,0,0,0,12.418,8.174a19.179,19.179,0,0,0-4.09-5.818c-1.46-1.3-3.4-2.488-5.44-2.344A4.717,4.717,0,0,0,.258,1.1c-.755.6.315,1.652,1.06,1.06l-.015.03C3,.838,5.213,1.828,6.713,2.988Z" transform="translate(413.917 318.541)" fill="#40403f"/><path d="M4.006,29.547c-1.45,3.016-2.77,6.1-3.955,9.232-.34.9,1.11,1.289,1.445.4A113.334,113.334,0,0,1,18.836,8.719q3.075-3.852,6.5-7.43c.665-.7-.395-1.757-1.06-1.06h-.02A115.024,115.024,0,0,0,4.006,29.547Z" transform="translate(389.624 318.877)" fill="#40403f"/><path d="M4.436,13.447c1.39,3.981,2.87,7.928,3.94,12a41.69,41.69,0,0,1,1.28,7.047c.08.951,1.58.961,1.5,0a53.707,53.707,0,0,0-2.79-12.278c-1.38-4.166-2.88-8.3-4.33-12.442L1.491.507c-.315-.9-1.765-.5-1.445.4Z" transform="translate(454.674 288.747)" fill="#40403f"/><path d="M6.576,15.741Q3.261,18.533.216,21.633a.75.75,0,0,0,1.065,1.055A92.339,92.339,0,0,1,25.551,4.981,85.755,85.755,0,0,1,33.4,1.5c.89-.348.5-1.792-.4-1.443V.024A94.19,94.19,0,0,0,6.576,15.741Z" transform="translate(380.074 420.231)" fill="#40403f"/><path d="M4.558,30.249l.425,9.128c.045.956,1.545.961,1.5,0q-.375-8.13-.76-16.264A88.147,88.147,0,0,0,4.013,8.4,41.248,41.248,0,0,0,1.368.388c-.4-.876-1.685-.114-1.3.756H.058C4.148,10.212,4.093,20.51,4.558,30.249Z" transform="translate(456.412 354.009)" fill="#40403f"/><path d="M4.285,1.573a5.273,5.273,0,0,1,2.8,1.47c.67.692,1.73-.368,1.06-1.055A6.828,6.828,0,0,0,.366.674.75.75,0,0,0,.1,1.694a.772.772,0,0,0,1,.269h.045A5.287,5.287,0,0,1,4.285,1.573Z" transform="translate(413.634 420.198)" fill="#40403f"/><path d="M23.393,1.413c-3,1.841-5.405,4.753-7.535,7.49A100.576,100.576,0,0,0,4.808,27.651C3.123,31.194,1.563,34.8.058,38.421c-.365.891,1.085,1.274,1.45.4a181.439,181.439,0,0,1,8.58-18.23c3.2-5.808,6.89-11.616,11.815-16.14a10.445,10.445,0,0,1,5.055-2.877,5.131,5.131,0,0,1,4.675,1.314c.665.7,1.725-.358,1.06-1.055C30.233-.762,26.193-.319,23.393,1.413Z" transform="translate(425.277 351.899)" fill="#40403f"/><path d="M18.805,1.491c-1.83,1.518-2.94,3.817-4,5.888A91.335,91.335,0,0,0,9.51,20.2a206.659,206.659,0,0,0-7,28.771C1.6,54.061.79,59.172.01,64.289c-.145.941,1.3,1.344,1.445.393,1.375-9.038,2.85-18.066,4.835-27a133.488,133.488,0,0,1,8.35-26.571,49.445,49.445,0,0,1,3.42-6.47C19.36,2.65,22,.366,24.44,2.048c.8.552,1.545-.742.755-1.289l.005,0C23.2-.62,20.555.037,18.805,1.491Z" transform="translate(430.375 288.739)" fill="#40403f"/><path d="M10.175,0S7.635,21.017,0,25.83H31.69A36.9,36.9,0,0,0,39.675,0Z" transform="translate(73.785 325.382)" fill="#f16823"/><path d="M10.175,0S7.63,21.022,0,25.835H31.675A36.921,36.921,0,0,0,39.675,0Z" transform="translate(115.925 343.866)" fill="#40403f"/><path d="M10.18,0S7.635,21.017,0,25.83H31.68A36.876,36.876,0,0,0,39.68,0Z" transform="translate(70.27 378.738)" fill="#f16823"/><path d="M0,26.233,2.335,0h10.53l-2.34,26.233Z" transform="translate(94.085 97.462)" fill="#ed6623"/><path d="M0,33.395,2.965,0H13.49L10.525,33.395Z" transform="translate(111.26 90.3)" fill="#f69821"/><path d="M0,38.2,3.43,0H13.96L10.525,38.2Z" transform="translate(128.435 85.492)" fill="#13161d"/><path d="M22.64,12.1a7.6,7.6,0,0,1,3-.8,6.481,6.481,0,0,1,2.71.841,10.907,10.907,0,0,0,5.6,1.364c4.225-.259,8-2.658,11.64-4.614l13.9-7.505c.85-.458.095-1.747-.755-1.289L46.365,6.776c-2,1.08-4,2.2-6,3.21a18.3,18.3,0,0,1-5.875,1.991,8.539,8.539,0,0,1-2.95-.144,14.914,14.914,0,0,1-2.785-1.15,8.187,8.187,0,0,0-2.67-.841,6.808,6.808,0,0,0-3,.5,56.628,56.628,0,0,0-5.745,2.6q-2.785,1.389-5.465,2.986A92.826,92.826,0,0,0,.255,24.031c-.75.612.32,1.662,1.06,1.06l.01-.055A89.241,89.241,0,0,1,22.64,12.1Z" transform="translate(85.54 70.047)" fill="#ed6623"/><path d="M9.4,1.5,8.677.55,6.712,7.876,6.427,8.931a.751.751,0,0,0,.542.86.756.756,0,0,0,.908-.462L9.842,2,10.127.949A.76.76,0,0,0,9.4,0Q5.082.541.722.65a.747.747,0,0,0,0,1.493Q5.082,2.029,9.4,1.5Z" transform="translate(136.083 69.116)" fill="#ed6623"/><path d="M4.965,9.884A4.942,4.942,0,1,1,9.93,4.942,4.954,4.954,0,0,1,4.965,9.884Z" transform="translate(110.075 467.929)" fill="#13161d"/><path d="M4.965,9.884A4.942,4.942,0,1,1,9.93,4.942,4.954,4.954,0,0,1,4.965,9.884Z" transform="translate(166.14 114.861)" fill="#13161d"/><path d="M4.965,9.884A4.942,4.942,0,1,1,9.93,4.942,4.954,4.954,0,0,1,4.965,9.884Z" transform="translate(300.26 323.889)" fill="#13161d"/><path d="M52.265,247.807H0V0H17.735" transform="translate(57.805 225.063)" fill="none" stroke="#13161d" stroke-linecap="round" stroke-linejoin="round" stroke-width="3" stroke-dasharray="0 0"/><path d="M0,13.268V0H92.41V80.59" transform="translate(171.105 101.592)" fill="none" stroke="#13161d" stroke-linecap="round" stroke-linejoin="round" stroke-width="3" stroke-dasharray="0 0"/><path d="M36.74,97.178H0V0" transform="translate(263.515 231.653)" fill="none" stroke="#13161d" stroke-linecap="round" stroke-linejoin="round" stroke-width="3" stroke-dasharray="0 0"/><path d="M28.811,18.408l8.125,4.857a.752.752,0,0,0,1-.282.744.744,0,0,0-.247-1.007L9.256,4.965,1.131.1A.752.752,0,0,0,.1.369.746.746,0,0,0,.371,1.392Z" transform="translate(265.659 436.706)" fill="#13161d"/><path d="M7.328,6.3a.743.743,0,0,0,.73-1.294L1.1.089A.757.757,0,0,0,.1.358a.754.754,0,0,0,.27,1.02H.328Z" transform="translate(306.172 416.359)" fill="#13161d"/><path d="M1.055,21.231A57.485,57.485,0,0,0,0,27.7c-.1.951,1.4.946,1.5,0A55.46,55.46,0,0,1,8.33,6.419a57.006,57.006,0,0,1,3.425-5.34C12.32.3,11.02-.449,10.46.328A56.952,56.952,0,0,0,1.055,21.231Z" transform="translate(342.7 363.182)" fill="#40403f"/><path d="M8.884,1.126A.745.745,0,0,0,8.617.1.753.753,0,0,0,7.589.369Q3.974,6.565.114,12.612c-.5.811.775,1.563,1.3.752Q5.264,7.317,8.884,1.126Z" transform="translate(366.561 410.958)" fill="#40403f"/><path d="M.054,29.745c-.35.891,1.1,1.279,1.45.393L13,.9c.35-.9-1.1-1.284-1.445-.4h0Z" transform="translate(319.551 371.584)" fill="#40403f"/><path d="M6.045,12.034A6.017,6.017,0,1,1,12.09,6.017,6.031,6.031,0,0,1,6.045,12.034Z" transform="translate(352.975 109.167)" fill="#ed6623"/><path d="M9.094,2.5a11.373,11.373,0,0,1,12.8,2.255c2.195,2.364,2.79,5.708,2.935,8.814.045.956,1.545.961,1.5,0-.145-3.1-.7-6.355-2.59-8.914A11.644,11.644,0,0,0,17.264.4a13.664,13.664,0,0,0-13.5,4.2A15.852,15.852,0,0,0,.009,12.861c-.135.941,1.31,1.344,1.45.4h.005A13.694,13.694,0,0,1,9.094,2.5Z" transform="translate(345.536 102.548)" fill="#ed6623"/><path d="M5.885,9.577A20.864,20.864,0,0,1,14,3.137C20.9.046,29.83,1.325,35,7.048c3.475,3.852,4.445,9.227,4.675,14.234.045.956,1.545.961,1.5,0-.225-4.833-1.085-9.919-4-13.935A18.15,18.15,0,0,0,27.07.663a21.368,21.368,0,0,0-21.295,6.7A24.83,24.83,0,0,0,.01,20.247c-.14.941,1.305,1.349,1.445.4l-.015.015A23.97,23.97,0,0,1,5.885,9.577Z" transform="translate(338.115 94.838)" fill="#ed6623"/><path d="M7.736,12.494A28.805,28.805,0,0,1,19.021,3.68c9.5-4.161,21.73-2.374,28.83,5.475,4.825,5.335,6.185,12.771,6.5,19.713.045.956,1.545.961,1.5,0-.3-6.6-1.5-13.552-5.5-19A24.641,24.641,0,0,0,36.686.908,28.059,28.059,0,0,0,20.3,1.59,30.111,30.111,0,0,0,7.881,10,33.734,33.734,0,0,0,.021,27.554a.771.771,0,0,0,.525.916.761.761,0,0,0,.925-.5l-.005-.05A32.917,32.917,0,0,1,7.736,12.494Z" transform="translate(330.759 87.272)" fill="#ed6623"/></g></g></g></svg>